<svg width="19" height="16" viewBox="0 0 19 16" fill="none" xmlns="http://www.w3.org/2000/svg">
<path d="M16.2211 2.44274C15.8269 2.04835 15.3588 1.7355 14.8437 1.52205C14.3285 1.30859 13.7764 1.19873 13.2188 1.19873C12.6611 1.19873 12.109 1.30859 11.5938 1.52205C11.0787 1.7355 10.6107 2.04835 10.2165 2.44274L9.39834 3.26085L8.58023 2.44274C7.78397 1.64648 6.70401 1.19914 5.57793 1.19914C4.45185 1.19914 3.37189 1.64648 2.57563 2.44274C1.77937 3.239 1.33203 4.31896 1.33203 5.44504C1.33203 6.57112 1.77937 7.65109 2.57563 8.44735L3.39373 9.26545L9.39834 15.2701L15.403 9.26545L16.2211 8.44735C16.6154 8.05314 16.9283 7.5851 17.1418 7.06996C17.3552 6.55481 17.4651 6.00266 17.4651 5.44504C17.4651 4.88743 17.3552 4.33527 17.1418 3.82013C16.9283 3.30498 16.6154 2.83694 16.2211 2.44274Z" stroke="#515151" stroke-width="1.2" stroke-linecap="round" stroke-linejoin="round"/>
</svg>
