<svg width="14" height="14" viewBox="0 0 14 14" fill="none" xmlns="http://www.w3.org/2000/svg">
<path d="M4.375 1.55704C4.14294 1.55704 3.92038 1.63896 3.75628 1.78478C3.59219 1.9306 3.5 2.12838 3.5 2.3346C3.5 2.54083 3.59219 2.7386 3.75628 2.88443C3.92038 3.03025 4.14294 3.11217 4.375 3.11217C4.60706 3.11217 4.82962 3.03025 4.99372 2.88443C5.15781 2.7386 5.25 2.54083 5.25 2.3346C5.25 2.12838 5.15781 1.9306 4.99372 1.78478C4.82962 1.63896 4.60706 1.55704 4.375 1.55704ZM1.89875 1.55704C2.07953 1.10175 2.41477 0.707495 2.85827 0.428625C3.30178 0.149756 3.8317 0 4.375 0C4.9183 0 5.44822 0.149756 5.89173 0.428625C6.33523 0.707495 6.67047 1.10175 6.85125 1.55704H13.125C13.3571 1.55704 13.5796 1.63896 13.7437 1.78478C13.9078 1.9306 14 2.12838 14 2.3346C14 2.54083 13.9078 2.7386 13.7437 2.88443C13.5796 3.03025 13.3571 3.11217 13.125 3.11217H6.85125C6.67047 3.56746 6.33523 3.96171 5.89173 4.24058C5.44822 4.51945 4.9183 4.66921 4.375 4.66921C3.8317 4.66921 3.30178 4.51945 2.85827 4.24058C2.41477 3.96171 2.07953 3.56746 1.89875 3.11217H0.875C0.642936 3.11217 0.420376 3.03025 0.256282 2.88443C0.0921874 2.7386 0 2.54083 0 2.3346C0 2.12838 0.0921874 1.9306 0.256282 1.78478C0.420376 1.63896 0.642936 1.55704 0.875 1.55704H1.89875ZM9.625 6.22243C9.39294 6.22243 9.17038 6.30436 9.00628 6.45018C8.84219 6.596 8.75 6.79378 8.75 7C8.75 7.20622 8.84219 7.404 9.00628 7.54982C9.17038 7.69564 9.39294 7.77757 9.625 7.77757C9.85706 7.77757 10.0796 7.69564 10.2437 7.54982C10.4078 7.404 10.5 7.20622 10.5 7C10.5 6.79378 10.4078 6.596 10.2437 6.45018C10.0796 6.30436 9.85706 6.22243 9.625 6.22243ZM7.14875 6.22243C7.32953 5.76714 7.66477 5.37289 8.10827 5.09402C8.55178 4.81515 9.0817 4.6654 9.625 4.6654C10.1683 4.6654 10.6982 4.81515 11.1417 5.09402C11.5852 5.37289 11.9205 5.76714 12.1012 6.22243H13.125C13.3571 6.22243 13.5796 6.30436 13.7437 6.45018C13.9078 6.596 14 6.79378 14 7C14 7.20622 13.9078 7.404 13.7437 7.54982C13.5796 7.69564 13.3571 7.77757 13.125 7.77757H12.1012C11.9205 8.23286 11.5852 8.62711 11.1417 8.90598C10.6982 9.18485 10.1683 9.3346 9.625 9.3346C9.0817 9.3346 8.55178 9.18485 8.10827 8.90598C7.66477 8.62711 7.32953 8.23286 7.14875 7.77757H0.875C0.642936 7.77757 0.420376 7.69564 0.256282 7.54982C0.0921874 7.404 0 7.20622 0 7C0 6.79378 0.0921874 6.596 0.256282 6.45018C0.420376 6.30436 0.642936 6.22243 0.875 6.22243H7.14875ZM4.375 10.8878C4.14294 10.8878 3.92038 10.9698 3.75628 11.1156C3.59219 11.2614 3.5 11.4592 3.5 11.6654C3.5 11.8716 3.59219 12.0694 3.75628 12.2152C3.92038 12.361 4.14294 12.443 4.375 12.443C4.60706 12.443 4.82962 12.361 4.99372 12.2152C5.15781 12.0694 5.25 11.8716 5.25 11.6654C5.25 11.4592 5.15781 11.2614 4.99372 11.1156C4.82962 10.9698 4.60706 10.8878 4.375 10.8878ZM1.89875 10.8878C2.07953 10.4325 2.41477 10.0383 2.85827 9.75942C3.30178 9.48055 3.8317 9.33079 4.375 9.33079C4.9183 9.33079 5.44822 9.48055 5.89173 9.75942C6.33523 10.0383 6.67047 10.4325 6.85125 10.8878H13.125C13.3571 10.8878 13.5796 10.9698 13.7437 11.1156C13.9078 11.2614 14 11.4592 14 11.6654C14 11.8716 13.9078 12.0694 13.7437 12.2152C13.5796 12.361 13.3571 12.443 13.125 12.443H6.85125C6.67047 12.8983 6.33523 13.2925 5.89173 13.5714C5.44822 13.8502 4.9183 14 4.375 14C3.8317 14 3.30178 13.8502 2.85827 13.5714C2.41477 13.2925 2.07953 12.8983 1.89875 12.443H0.875C0.642936 12.443 0.420376 12.361 0.256282 12.2152C0.0921874 12.0694 0 11.8716 0 11.6654C0 11.4592 0.0921874 11.2614 0.256282 11.1156C0.420376 10.9698 0.642936 10.8878 0.875 10.8878H1.89875Z" fill="#FF611D"/>
</svg>
