<svg width="24" height="22" viewBox="0 0 24 22" fill="none" xmlns="http://www.w3.org/2000/svg">
<path d="M13.4036 20.0475L13.4043 20.0469C16.5044 17.2383 19.037 14.9431 20.8006 12.7889C22.5585 10.6416 23.5 8.69555 23.5 6.59401C23.5 3.17793 20.8203 0.5 17.4 0.5C15.4632 0.5 13.5967 1.40323 12.3805 2.83006L12 3.27652L11.6195 2.83006C10.4033 1.40323 8.53678 0.5 6.6 0.5C3.17971 0.5 0.5 3.17793 0.5 6.59401C0.5 8.69556 1.44148 10.6416 3.19949 12.7905C4.9593 14.9415 7.48461 17.2343 10.5753 20.0404L10.595 20.0583L10.5961 20.0592L11.9987 21.3253L13.4036 20.0475Z" fill="white" stroke="white"/>
</svg>
