<svg width="17" height="16" viewBox="0 0 17 16" fill="none" xmlns="http://www.w3.org/2000/svg">
<path d="M13.2695 9.90257C13.0572 10.1083 12.9597 10.4059 13.008 10.6978L13.7368 14.731C13.7983 15.0729 13.654 15.4188 13.3679 15.6164C13.0876 15.8213 12.7146 15.8459 12.4088 15.682L8.77802 13.7883C8.65178 13.7211 8.5116 13.685 8.36814 13.6809H8.14598C8.06892 13.6924 7.99351 13.717 7.92464 13.7547L4.29306 15.6574C4.11353 15.7475 3.91023 15.7795 3.71103 15.7475C3.22572 15.6557 2.90191 15.1934 2.98143 14.7056L3.71103 10.6723C3.75939 10.378 3.66184 10.0788 3.44952 9.86978L0.489329 7.00059C0.241759 6.76039 0.155683 6.3997 0.268811 6.07425C0.37866 5.74962 0.659022 5.5127 0.997587 5.45942L5.07184 4.86837C5.38172 4.83639 5.65388 4.64785 5.79324 4.36913L7.58854 0.688357C7.63117 0.60638 7.68609 0.530961 7.75249 0.467019L7.82627 0.409635C7.8648 0.367007 7.90907 0.331757 7.95825 0.303065L8.04761 0.270275L8.18697 0.212891H8.53209C8.84033 0.244862 9.11167 0.42931 9.25349 0.704753L11.0726 4.36913C11.2037 4.63719 11.4587 4.82328 11.753 4.86837L15.8272 5.45942C16.1715 5.50861 16.4593 5.74634 16.5732 6.07425C16.6806 6.40298 16.588 6.76367 16.3355 7.00059L13.2695 9.90257Z" fill="#FF611D"/>
</svg>
