<svg width="24" height="23" viewBox="0 0 24 23" fill="none" xmlns="http://www.w3.org/2000/svg">
<path d="M18.9391 8.33459C19.1384 8.33459 19.3193 8.41796 19.4623 8.55884C19.5955 8.70929 19.6626 8.89617 19.6432 9.09358C19.6432 9.15875 19.1102 15.6179 18.8058 18.3366C18.6152 20.0051 17.4929 21.018 15.8094 21.0458C14.5149 21.0736 13.2496 21.0832 12.0038 21.0832C10.6811 21.0832 9.38763 21.0736 8.13206 21.0458C6.50498 21.0084 5.38168 19.9773 5.20079 18.3366C4.88763 15.6083 4.36439 9.15875 4.35467 9.09358C4.34494 8.89617 4.41108 8.70929 4.54529 8.55884C4.67756 8.41796 4.86818 8.33459 5.06852 8.33459H18.9391ZM14.0647 1.9165C14.9488 1.9165 15.7385 2.50779 15.967 3.35111L16.1304 4.05069C16.2627 4.62089 16.7781 5.02435 17.3714 5.02435H20.2871C20.6761 5.02435 21 5.33389 21 5.72776V6.09192C21 6.47621 20.6761 6.79533 20.2871 6.79533H3.71385C3.32386 6.79533 3 6.47621 3 6.09192V5.72776C3 5.33389 3.32386 5.02435 3.71385 5.02435H6.62957C7.22185 5.02435 7.7373 4.62089 7.87054 4.05165L8.02323 3.39807C8.26054 2.50779 9.0415 1.9165 9.93527 1.9165H14.0647Z" fill="#757575"/>
</svg>
