<svg width="11" height="11" viewBox="0 0 11 11" fill="#FF611D" xmlns="http://www.w3.org/2000/svg">
<path d="M8.43742 6.26491C8.30014 6.39794 8.23707 6.59034 8.26834 6.77903L8.73953 9.38676C8.77928 9.60778 8.686 9.83145 8.50102 9.95919C8.31975 10.0917 8.07859 10.1076 7.88089 10.0016L5.53341 8.77723C5.45178 8.73377 5.36115 8.71045 5.26839 8.7078H5.12475C5.07493 8.71522 5.02617 8.73112 4.98165 8.7555L2.63363 9.98569C2.51756 10.044 2.38611 10.0647 2.25731 10.044C1.94354 9.98463 1.73418 9.68569 1.78559 9.37033L2.25731 6.7626C2.28859 6.57232 2.22551 6.37886 2.08824 6.24371L0.174313 4.38861C0.0142449 4.23332 -0.0414078 4.00011 0.0317357 3.78969C0.102759 3.5798 0.284028 3.42662 0.502929 3.39217L3.13716 3.01002C3.33751 2.98935 3.51348 2.86744 3.60358 2.68723L4.76434 0.307415C4.7919 0.254412 4.82741 0.20565 4.87034 0.164308L4.91805 0.127206C4.94296 0.0996449 4.97158 0.0768538 5.00338 0.0583029L5.06115 0.0371018L5.15126 0H5.3744C5.57369 0.020671 5.74913 0.139927 5.84082 0.318016L7.01695 2.68723C7.10175 2.86055 7.26659 2.98087 7.45687 3.01002L10.0911 3.39217C10.3137 3.42397 10.4997 3.57768 10.5734 3.78969C10.6429 4.00223 10.583 4.23544 10.4197 4.38861L8.43742 6.26491Z" fill="#ccc"/>
</svg>
