<svg width="40" height="37" viewBox="0 0 40 37" fill="none" xmlns="http://www.w3.org/2000/svg">
<path d="M31.6308 22.6702C31.1226 23.1517 30.8891 23.8479 31.0049 24.5307L32.7492 33.967C32.8963 34.7668 32.551 35.5762 31.8662 36.0384C31.1952 36.5179 30.3025 36.5754 29.5706 36.1918L20.8805 31.7614C20.5783 31.6041 20.2428 31.5197 19.8994 31.5101H19.3677C19.1833 31.537 19.0028 31.5945 18.8379 31.6827L10.1459 36.1343C9.71618 36.3453 9.22958 36.4201 8.75279 36.3453C7.59123 36.1305 6.81621 35.0487 7.00653 33.9076L8.75279 24.4712C8.86856 23.7827 8.63507 23.0826 8.12688 22.5935L1.04177 15.8807C0.449217 15.3187 0.243197 14.4748 0.513966 13.7134C0.776887 12.9539 1.44792 12.3996 2.25827 12.2749L12.0099 10.8921C12.7515 10.8173 13.403 10.3761 13.7365 9.72404L18.0335 1.11241C18.1355 0.920619 18.267 0.744167 18.4259 0.594567L18.6025 0.46031C18.6947 0.360576 18.8007 0.278104 18.9184 0.210975L19.1323 0.134257L19.4658 0H20.2919C21.0296 0.0748003 21.6791 0.506341 22.0185 1.15077L26.3724 9.72404C26.6863 10.3512 27.2965 10.7866 28.0009 10.8921L37.7525 12.2749C38.5766 12.39 39.2653 12.9462 39.538 13.7134C39.7951 14.4825 39.5733 15.3264 38.969 15.8807L31.6308 22.6702Z" fill="#DFDFDF"/>
</svg>
