<svg width="20" height="20" viewBox="0 0 20 20" fill="none" xmlns="http://www.w3.org/2000/svg">
<path d="M14.1136 0.129883C17.3869 0.129883 19.2546 1.97832 19.2546 5.26123V14.2531C19.2546 17.5168 17.3965 19.3845 14.1232 19.3845H5.13135C1.84844 19.3845 0 17.5168 0 14.2531V5.26123C0 1.97832 1.84844 0.129883 5.13135 0.129883H14.1136ZM9.61767 5.43452C9.17481 5.43452 8.8186 5.79073 8.8186 6.23359V8.94849H6.09408C5.88228 8.94849 5.68011 9.03513 5.52607 9.17954C5.38166 9.33358 5.29501 9.53479 5.29501 9.74755C5.29501 10.1904 5.65122 10.5466 6.09408 10.5562H8.8186V13.2808C8.8186 13.7236 9.17481 14.0798 9.61767 14.0798C10.0605 14.0798 10.4167 13.7236 10.4167 13.2808V10.5562H13.1509C13.5937 10.5466 13.95 10.1904 13.95 9.74755C13.95 9.3047 13.5937 8.94849 13.1509 8.94849H10.4167V6.23359C10.4167 5.79073 10.0605 5.43452 9.61767 5.43452Z" fill="#757575"/>
</svg>
