<svg width="17" height="17" viewBox="0 0 17 17" fill="none" xmlns="http://www.w3.org/2000/svg">
<path d="M15.5526 12.3188V14.5505C15.5535 14.7577 15.511 14.9628 15.428 15.1526C15.345 15.3424 15.2233 15.5128 15.0706 15.6529C14.918 15.7929 14.7377 15.8996 14.5415 15.9659C14.3452 16.0323 14.1372 16.057 13.9309 16.0383C11.6418 15.7896 9.44295 15.0074 7.51104 13.7545C5.71364 12.6124 4.18977 11.0885 3.04763 9.29113C1.79042 7.35044 1.00803 5.1409 0.763851 2.8415C0.745261 2.63579 0.769709 2.42846 0.835637 2.23271C0.901566 2.03697 1.00753 1.85709 1.14679 1.70454C1.28604 1.55199 1.45553 1.43011 1.64447 1.34665C1.83341 1.26319 2.03766 1.21999 2.24421 1.2198H4.47592C4.83694 1.21625 5.18693 1.34409 5.46067 1.5795C5.7344 1.81491 5.91319 2.14182 5.96372 2.49931C6.05792 3.2135 6.2326 3.91475 6.48445 4.58967C6.58454 4.85593 6.6062 5.1453 6.54687 5.4235C6.48754 5.70169 6.3497 5.95705 6.1497 6.1593L5.20494 7.10406C6.26393 8.96645 7.80596 10.5085 9.66835 11.5675L10.6131 10.6227C10.8154 10.4227 11.0707 10.2849 11.3489 10.2255C11.6271 10.1662 11.9165 10.1879 12.1827 10.288C12.8577 10.5398 13.5589 10.7145 14.2731 10.8087C14.6345 10.8597 14.9645 11.0417 15.2004 11.3201C15.4363 11.5985 15.5617 11.954 15.5526 12.3188Z" stroke="#898989" stroke-linecap="round" stroke-linejoin="round"/>
</svg>
