<svg width="15" height="18" viewBox="0 0 15 18" fill="none" xmlns="http://www.w3.org/2000/svg">
<path d="M14.4153 7.48206C14.4153 12.8765 7.47962 17.5003 7.47962 17.5003C7.47962 17.5003 0.543945 12.8765 0.543945 7.48206C0.543945 5.64261 1.27467 3.87849 2.57536 2.5778C3.87605 1.27711 5.64017 0.546387 7.47962 0.546387C9.31908 0.546387 11.0832 1.27711 12.3839 2.5778C13.6846 3.87849 14.4153 5.64261 14.4153 7.48206Z" stroke="#898989" stroke-linecap="round" stroke-linejoin="round"/>
<path d="M7.48084 9.79517C8.75766 9.79517 9.79273 8.7601 9.79273 7.48328C9.79273 6.20646 8.75766 5.17139 7.48084 5.17139C6.20401 5.17139 5.16895 6.20646 5.16895 7.48328C5.16895 8.7601 6.20401 9.79517 7.48084 9.79517Z" stroke="#898989" stroke-linecap="round" stroke-linejoin="round"/>
</svg>
