<svg width="21" height="20" viewBox="0 0 21 20" fill="none" xmlns="http://www.w3.org/2000/svg">
<path d="M16.6575 12.532C16.3925 12.783 16.2707 13.1461 16.3311 13.5022L17.2407 18.4235C17.3175 18.8406 17.1374 19.2627 16.7803 19.5037C16.4303 19.7538 15.9647 19.7838 15.583 19.5838L11.051 17.2732C10.8934 17.1912 10.7184 17.1471 10.5393 17.1421H10.262C10.1659 17.1561 10.0717 17.1862 9.98576 17.2322L5.45267 19.5538C5.22857 19.6638 4.9748 19.7028 4.72615 19.6638C4.12037 19.5518 3.71618 18.9876 3.81544 18.3925L4.72615 13.4712C4.78652 13.1121 4.66475 12.747 4.39972 12.492L0.704693 8.99108C0.395665 8.69801 0.288222 8.2579 0.429433 7.8608C0.566551 7.46469 0.91651 7.17562 1.33912 7.1106L6.42477 6.38942C6.81157 6.35041 7.1513 6.12035 7.32525 5.78027L9.56621 1.28913C9.61942 1.18911 9.68798 1.09708 9.77087 1.01906L9.86296 0.949045C9.91106 0.897032 9.96631 0.854021 10.0277 0.819012L10.1392 0.779002L10.3132 0.708984H10.744C11.1287 0.747994 11.4675 0.973051 11.6445 1.30914L13.9151 5.78027C14.0788 6.10735 14.3971 6.33441 14.7644 6.38942L19.8501 7.1106C20.2799 7.17062 20.639 7.46069 20.7813 7.8608C20.9153 8.2619 20.7997 8.70201 20.4845 8.99108L16.6575 12.532Z" fill="#FFB21D"/>
</svg>
