<svg width="18" height="17" viewBox="0 0 18 17" fill="none" xmlns="http://www.w3.org/2000/svg">
<path d="M15.9249 2.52407C15.5233 2.12232 15.0465 1.80363 14.5218 1.58619C13.997 1.36875 13.4345 1.25684 12.8665 1.25684C12.2985 1.25684 11.736 1.36875 11.2113 1.58619C10.6865 1.80363 10.2097 2.12232 9.80814 2.52407L8.97476 3.35746L8.14137 2.52407C7.33024 1.71294 6.23011 1.25726 5.083 1.25726C3.93589 1.25726 2.83576 1.71294 2.02463 2.52407C1.2135 3.3352 0.757813 4.43533 0.757812 5.58244C0.757812 6.72955 1.2135 7.82968 2.02463 8.64081L2.85802 9.4742L8.97476 15.5909L15.0915 9.4742L15.9249 8.64081C16.3266 8.23925 16.6453 7.76247 16.8628 7.2377C17.0802 6.71294 17.1921 6.15047 17.1921 5.58244C17.1921 5.01441 17.0802 4.45195 16.8628 3.92719C16.6453 3.40242 16.3266 2.92564 15.9249 2.52407Z" stroke="#898989" stroke-linecap="round" stroke-linejoin="round"/>
</svg>
