<svg width="24" height="24" viewBox="0 0 24 24" fill="none" xmlns="http://www.w3.org/2000/svg">
<path d="M9.26976 3.15596C7.42589 3.15596 5.65754 3.88843 4.35373 5.19225C3.04992 6.49606 2.31744 8.26441 2.31744 10.1083C2.31744 11.9521 3.04992 13.7205 4.35373 15.0243C5.65754 16.3281 7.42589 17.0606 9.26976 17.0606C11.1136 17.0606 12.882 16.3281 14.1858 15.0243C15.4896 13.7205 16.2221 11.9521 16.2221 10.1083C16.2221 8.26441 15.4896 6.49606 14.1858 5.19225C12.882 3.88843 11.1136 3.15596 9.26976 3.15596ZM5.72596e-08 10.1083C0.000211265 8.63307 0.352504 7.17921 1.0276 5.86753C1.70269 4.55585 2.68109 3.42423 3.88149 2.56673C5.08188 1.70923 6.46959 1.1506 7.9293 0.937276C9.38901 0.723952 10.8786 0.862092 12.2741 1.34022C13.6697 1.81834 14.931 2.62264 15.9533 3.68627C16.9755 4.7499 17.7291 6.04214 18.1515 7.45559C18.5738 8.86905 18.6528 10.3629 18.3817 11.813C18.1106 13.2631 17.4973 14.6275 16.5929 15.793L22.8349 22.035C23.046 22.2535 23.1628 22.5462 23.1601 22.85C23.1575 23.1538 23.0356 23.4445 22.8208 23.6593C22.6059 23.8741 22.3153 23.996 22.0115 23.9986C21.7077 24.0013 21.415 23.8845 21.1965 23.6734L14.9544 17.4314C13.5842 18.4952 11.943 19.1532 10.2173 19.3305C8.49169 19.5078 6.75092 19.1974 5.19297 18.4345C3.63503 17.6715 2.32241 16.4868 1.4044 15.0149C0.486383 13.543 -0.000192719 11.843 5.72596e-08 10.1083Z" fill="#FF611D"/>
</svg>
