<svg width="12" height="9" viewBox="0 0 12 9" fill="none" xmlns="http://www.w3.org/2000/svg">
<path d="M11.2964 0.00109097C10.1548 0.0635683 7.88555 0.290978 6.4847 1.11785C6.38803 1.1749 6.33323 1.27635 6.33323 1.38242V8.69228C6.33323 8.92431 6.59636 9.07096 6.81824 8.96328C8.25952 8.26377 10.3439 8.07293 11.3746 8.02069C11.7265 8.00282 12 7.73081 12 7.40476V0.617829C12.0002 0.26205 11.6802 -0.0198018 11.2964 0.00109097ZM5.5153 1.11785C4.11466 0.290978 1.84545 0.0637692 0.703762 0.00109097C0.320006 -0.0198018 0 0.26205 0 0.617829V7.40496C0 7.73121 0.273546 8.00322 0.625428 8.0209C1.65649 8.07313 3.74194 8.26418 5.18322 8.96408C5.40447 9.07156 5.66677 8.92511 5.66677 8.69368V1.37881C5.66677 1.27254 5.61218 1.1751 5.5153 1.11785Z" fill="#8D8D8D"/>
</svg>
