<svg width="12" height="11" viewBox="0 0 12 11" fill="none" xmlns="http://www.w3.org/2000/svg">
<path opacity="0.9" d="M0 4.8125V10.6563C0 10.8462 0.13425 11 0.3 11H1.8V4.125H0.6C0.268688 4.125 0 4.43287 0 4.8125ZM6.75 3.78125H6.3V2.92188C6.3 2.82692 6.23288 2.75 6.15 2.75H5.85C5.76713 2.75 5.7 2.82692 5.7 2.92188V4.29688C5.7 4.39184 5.76713 4.46875 5.85 4.46875H6.75C6.83288 4.46875 6.9 4.39184 6.9 4.29688V3.95313C6.9 3.85817 6.83288 3.78125 6.75 3.78125ZM9.33281 2.40711L6.33281 0.115373C6.23424 0.0401415 6.11844 0 6 0C5.88156 0 5.76576 0.0401415 5.66719 0.115373L2.66719 2.40711C2.58502 2.46988 2.51764 2.55493 2.47103 2.65469C2.42442 2.75446 2.40002 2.86586 2.4 2.97903V11H4.8V7.90625C4.8 7.71633 4.93425 7.5625 5.1 7.5625H6.9C7.06575 7.5625 7.2 7.71633 7.2 7.90625V11H9.6V2.97924C9.6 2.74936 9.49969 2.53451 9.33281 2.40711ZM6 5.5C5.17163 5.5 4.5 4.73043 4.5 3.78125C4.5 2.83207 5.17163 2.0625 6 2.0625C6.82838 2.0625 7.5 2.83207 7.5 3.78125C7.5 4.73043 6.82838 5.5 6 5.5ZM11.4 4.125H10.2V11H11.7C11.8658 11 12 10.8462 12 10.6563V4.8125C12 4.43287 11.7313 4.125 11.4 4.125Z" fill="#818181"/>
</svg>
