<svg width="21" height="20" viewBox="0 0 21 20" fill="none" xmlns="http://www.w3.org/2000/svg">
<path d="M16.6478 12.2636C16.3792 12.518 16.2559 12.8859 16.317 13.2467L17.2388 18.2332C17.3165 18.6558 17.1341 19.0835 16.7722 19.3278C16.4176 19.5812 15.9458 19.6116 15.5591 19.4089L10.967 17.0677C10.8073 16.9845 10.63 16.94 10.4486 16.9349H10.1676C10.0701 16.9491 9.97473 16.9795 9.88763 17.0261L5.29447 19.3785C5.0674 19.4899 4.81027 19.5295 4.55832 19.4899C3.94451 19.3764 3.53496 18.8048 3.63554 18.2018L4.55832 13.2153C4.61949 12.8515 4.49611 12.4815 4.22757 12.2231L0.483567 8.67579C0.170444 8.37884 0.0615765 7.93289 0.204659 7.53053C0.343595 7.12918 0.698191 6.83627 1.1264 6.7704L6.27946 6.03966C6.67138 6.00013 7.01561 5.76702 7.19187 5.42243L9.46253 0.871771C9.51645 0.77042 9.58592 0.677177 9.6699 0.598123L9.76321 0.527178C9.81194 0.474475 9.86793 0.430894 9.93014 0.395422L10.0432 0.354881L10.2194 0.283936H10.6559C11.0458 0.323462 11.389 0.551502 11.5683 0.892041L13.8691 5.42243C14.035 5.75385 14.3574 5.98391 14.7296 6.03966L19.8827 6.7704C20.3182 6.83121 20.6821 7.12512 20.8262 7.53053C20.962 7.93695 20.8449 8.38289 20.5255 8.67579L16.6478 12.2636Z" fill="#FFB21D"/>
</svg>
