<svg width="21" height="15" viewBox="0 0 21 15" fill="none" xmlns="http://www.w3.org/2000/svg">
<path d="M10.8464 0.845459C6.35256 0.845459 2.51483 3.64062 0.959961 7.58621C2.51483 11.5318 6.35256 14.327 10.8464 14.327C15.3402 14.327 19.178 11.5318 20.7328 7.58621C19.178 3.64062 15.3402 0.845459 10.8464 0.845459ZM10.8464 12.08C8.3658 12.08 6.35256 10.0668 6.35256 7.58621C6.35256 5.10561 8.3658 3.09238 10.8464 3.09238C13.327 3.09238 15.3402 5.10561 15.3402 7.58621C15.3402 10.0668 13.327 12.08 10.8464 12.08ZM10.8464 4.88991C9.35444 4.88991 8.15009 6.09425 8.15009 7.58621C8.15009 9.07816 9.35444 10.2825 10.8464 10.2825C12.3383 10.2825 13.5427 9.07816 13.5427 7.58621C13.5427 6.09425 12.3383 4.88991 10.8464 4.88991Z" fill="black"/>
</svg>
